<svg width="42" height="43" viewBox="0 0 42 43" fill="none" xmlns="http://www.w3.org/2000/svg">
<g clip-path="url(#clip0)">
<path d="M6.29999 21.7349H3.50002C3.11341 21.7349 2.80005 22.0482 2.80005 22.4348V40.6347C2.80005 41.7945 3.74021 42.7347 4.90005 42.7347C6.05988 42.7347 7.00004 41.7946 7.00004 40.6347V22.4348C6.99996 22.0482 6.6866 21.7349 6.29999 21.7349ZM5.6001 40.6347C5.60002 41.0213 5.28666 41.3347 4.90005 41.3347C4.51343 41.3347 4.20007 41.0213 4.20007 40.6347V23.1348H5.6001V40.6347Z" fill="#00AD73"/>
<path d="M6.29999 11.9349H3.50002C3.11341 11.9349 2.80005 12.2482 2.80005 12.6348V22.4349C2.80005 22.8215 3.11341 23.1348 3.50002 23.1348H6.29999C6.6866 23.1348 6.99996 22.8215 6.99996 22.4349V12.6349C6.99996 12.2483 6.6866 11.9349 6.29999 11.9349ZM5.60002 21.7349H4.19999V13.3348H5.60002V21.7349Z" fill="#00AD73"/>
<path d="M40.5999 0.734924H39.1999C37.6535 0.734924 36.3999 1.98852 36.3999 3.53489V20.3349C36.3846 21.7333 37.4036 22.9287 38.7869 23.1348H38.9129H39.1999H41.2999C41.6865 23.1348 41.9999 22.8215 41.9999 22.4349V2.13495C41.9999 1.36172 41.3731 0.734924 40.5999 0.734924ZM39.1159 21.7349H39.0319C38.3249 21.6495 37.7947 21.047 37.7998 20.3349V3.53489C37.7998 2.76167 38.4266 2.13487 39.1999 2.13487H40.5999V21.7349H39.1159Z" fill="#00AD73"/>
<path d="M3.50002 11.9358C2.34026 11.9358 1.40002 10.9956 1.40002 9.8358V1.43581C1.40002 1.0492 1.08658 0.73584 0.699971 0.73584C0.313359 0.73584 0 1.0492 0 1.43581V9.8358C0 11.7688 1.56704 13.3357 3.50002 13.3357C3.88663 13.3357 4.19999 13.0223 4.19999 12.6358C4.19999 12.2492 3.88663 11.9358 3.50002 11.9358Z" fill="#00AD73"/>
<path d="M9.09997 0.734924C8.71336 0.734924 8.4 1.04828 8.4 1.4349V9.83488C8.4 10.9946 7.45976 11.9349 6.30001 11.9349C5.9134 11.9349 5.60004 12.2482 5.60004 12.6348C5.60004 13.0215 5.9134 13.3348 6.30001 13.3348C8.23299 13.3348 9.80002 11.7678 9.80002 9.8348V1.4349C9.80002 1.04828 9.48658 0.734924 9.09997 0.734924Z" fill="#00AD73"/>
<path d="M9.09995 8.435H0.699971C0.313359 8.435 0 8.74836 0 9.13497C0 9.52158 0.313359 9.83494 0.699971 9.83494H9.09995C9.48657 9.83494 9.79993 9.52158 9.79993 9.13497C9.79993 8.74836 9.48657 8.435 9.09995 8.435Z" fill="#00AD73"/>
<path d="M3.50002 0.734924C3.11341 0.734924 2.80005 1.04828 2.80005 1.4349V9.13491C2.80005 9.52152 3.11341 9.83488 3.50002 9.83488C3.88663 9.83488 4.19999 9.52152 4.19999 9.13491V1.4349C4.19999 1.04828 3.88663 0.734924 3.50002 0.734924Z" fill="#00AD73"/>
<path d="M6.30001 0.734924C5.9134 0.734924 5.60004 1.04828 5.60004 1.4349V9.13491C5.60004 9.52152 5.9134 9.83488 6.30001 9.83488C6.68662 9.83488 6.99998 9.52152 6.99998 9.13491V1.4349C6.99998 1.04828 6.68662 0.734924 6.30001 0.734924Z" fill="#00AD73"/>
<path d="M41.2999 21.7349H38.5C38.1133 21.7349 37.8 22.0482 37.8 22.4348V40.6347C37.8 41.7945 38.7401 42.7347 39.9 42.7347C41.0598 42.7347 42 41.7946 42 40.6347V22.4348C41.9999 22.0482 41.6865 21.7349 41.2999 21.7349ZM40.6 40.6347C40.5999 41.0213 40.2865 41.3347 39.8999 41.3347C39.5133 41.3347 39.1999 41.0213 39.1999 40.6347V23.1348H40.6V40.6347Z" fill="#00AD73"/>
<path d="M39.6339 22.3299C39.622 22.2642 39.6008 22.2006 39.5709 22.1409C39.4676 21.9144 39.2516 21.7598 39.0039 21.735C38.297 21.6496 37.7668 21.047 37.7719 20.3349V17.0869C37.7703 16.969 37.739 16.8534 37.6809 16.7509C35.4589 12.7423 31.7529 9.76539 27.3594 8.45995C18.0948 5.70731 8.35275 10.9863 5.60003 20.2509C5.59085 20.3159 5.59085 20.3819 5.60003 20.4469V30.0229C5.59019 30.0902 5.59019 30.1586 5.60003 30.2259C7.8408 37.6357 14.6588 42.7123 22.4 42.7348C30.1392 42.7132 36.9567 37.6399 39.2 30.2329C39.2098 30.1656 39.2098 30.0972 39.2 30.0299V23.0929C39.5059 22.9721 39.6865 22.6546 39.6339 22.3299ZM37.7999 29.9249C36.2364 35.0525 32.2233 39.0656 27.0957 40.6291C18.5906 43.2225 9.59339 38.43 6.99998 29.9249V20.5519C8.2014 16.6116 10.8674 13.2817 14.4495 11.2475C22.1814 6.85657 32.009 9.56499 36.3999 17.2969V20.3349C36.401 21.3342 36.9345 22.2572 37.7999 22.7569V29.9249Z" fill="#00AD73"/>
<path d="M22.4 13.3349C15.8278 13.3349 10.5 18.6628 10.5 25.235C10.5 31.8071 15.8278 37.135 22.4 37.135C28.9722 37.135 34.3 31.8071 34.3 25.235C34.3 18.6628 28.9722 13.3349 22.4 13.3349ZM22.4 35.735C16.601 35.735 11.9 31.0339 11.9 25.235C11.9 19.436 16.6011 14.735 22.4 14.735C28.199 14.735 32.9 19.436 32.9 25.235C32.9 31.0339 28.199 35.735 22.4 35.735Z" fill="#00AD73"/>
<path d="M22.3999 16.1348C17.3741 16.1348 13.3 20.2091 13.3 25.2348C13.3 25.6214 13.6133 25.9348 14 25.9348C14.3866 25.9348 14.6999 25.6214 14.6999 25.2348C14.6999 20.9822 18.1474 17.5348 22.3999 17.5348C22.7866 17.5348 23.0999 17.2214 23.0999 16.8348C23.0999 16.4482 22.7865 16.1348 22.3999 16.1348Z" fill="#00AD73"/>
<path d="M30.8 24.5348C30.4134 24.5348 30.1 24.8481 30.1 25.2348C30.1 29.4873 26.6526 32.9348 22.4 32.9348C22.0134 32.9348 21.7 33.2482 21.7 33.6347C21.7 34.0213 22.0135 34.3347 22.4 34.3347C27.4257 34.3347 31.4999 30.2606 31.4999 25.2348C31.4999 24.8481 31.1866 24.5348 30.8 24.5348Z" fill="#00AD73"/>
</g>
<defs>
<clipPath id="clip0">
<rect width="42" height="42" fill="white" transform="translate(0 0.734863)"/>
</clipPath>
</defs>
</svg>
