<svg width="34" height="43" viewBox="0 0 34 43" fill="none" xmlns="http://www.w3.org/2000/svg">
<path d="M33.2053 18.8825C33.2053 15.1539 30.2415 12.19 26.5129 12.19C24.6963 12.19 22.9754 12.9549 21.7325 14.1977C20.7765 13.1461 19.438 12.4769 18.0039 12.2856C18.3863 9.03495 21.2545 6.45359 24.6007 6.45359C25.1744 6.45359 25.5567 6.07113 25.5567 5.49756C25.5567 4.92399 25.1743 4.54152 24.6007 4.54152C22.4017 4.54152 20.2984 5.402 18.6731 6.93169C18.3862 5.402 17.717 4.06351 16.5697 3.01184C14.9445 1.38651 12.5543 0.62167 10.1642 0.81286C9.68614 0.81286 9.39931 1.19532 9.30367 1.67334C9.01685 4.15914 9.87733 6.45367 11.5027 8.079C11.9807 8.55701 12.4587 8.84384 12.9368 9.2263C13.4148 9.51313 13.9885 9.32194 14.2753 8.93948C14.5621 8.46146 14.3709 7.88781 13.9885 7.60098C13.606 7.40979 13.2236 7.12296 12.9368 6.7405C11.7895 5.68883 11.2159 4.2547 11.2159 2.62946C12.8412 2.62946 14.2753 3.20311 15.3269 4.25478C16.5698 5.49764 17.1435 7.2186 16.9523 9.2263C16.9523 9.32194 16.9523 9.41749 16.8566 9.51313C16.8566 9.60876 16.6654 9.99115 16.5698 10.0868C16.1873 11.0428 15.9962 12.0945 15.9962 13.1462C15.9962 13.7198 16.3786 14.1022 16.9522 14.1022C19.6292 14.1022 21.7325 16.2055 21.7325 18.8825C21.7325 21.5595 19.6292 23.6629 16.9522 23.6629C14.2752 23.6629 12.1719 21.5595 12.1719 18.8825C12.1719 17.544 12.7455 16.2055 13.7972 15.345C14.1796 14.9626 14.1796 14.389 13.8928 14.0066C13.5104 13.6241 12.9368 13.6241 12.5543 13.9109C12.4587 14.0066 12.3631 14.1021 12.2675 14.1977C11.0246 12.9549 9.30367 12.19 7.48716 12.19C3.7585 12.19 0.794678 15.1539 0.794678 18.8825C0.794678 22.6112 3.7585 25.575 7.48716 25.575C8.252 25.575 9.01685 25.4794 9.68614 25.1925C10.1642 25.0014 10.451 24.4277 10.2598 23.9497C10.0686 23.4717 9.49495 23.1848 9.01693 23.376C8.44328 23.5672 7.96526 23.6629 7.39161 23.6629C4.71461 23.6629 2.61127 21.5595 2.61127 18.8825C2.61127 16.2055 4.71461 14.1022 7.39161 14.1022C8.82574 14.1022 10.1642 14.7714 11.0246 15.8231C10.5466 16.7791 10.2598 17.8308 10.2598 18.8824C10.2598 22.4198 13.0323 25.3836 16.5698 25.5749C16.8566 26.1486 16.9523 26.8178 16.9523 27.4871C16.9523 30.1641 14.8489 32.2674 12.1719 32.2674C9.78177 32.2674 7.86962 30.5465 7.48724 28.2519C7.39161 27.7739 6.91359 27.3914 6.33994 27.4871C5.86192 27.5827 5.47946 28.0607 5.57509 28.6344C6.05311 31.3114 8.0609 33.4147 10.6423 33.9884C10.3554 34.6576 10.2598 35.3269 10.2598 36.0917C10.2598 39.8204 13.2236 42.7842 16.9523 42.7842C20.2029 42.7842 22.9755 40.394 23.5491 37.239C23.6448 36.761 23.2623 36.1873 22.7843 36.0917C22.3063 35.9961 21.7326 36.3785 21.637 36.8565C21.2545 39.1511 19.3424 40.872 16.9523 40.872C14.2753 40.872 12.1719 38.7687 12.1719 36.0917C12.1719 35.4225 12.3631 34.7532 12.5544 34.1796C16.0919 33.9884 18.8644 31.0245 18.8644 27.4871C18.8644 26.7222 18.7688 26.0529 18.482 25.3837C21.4458 24.7144 23.6447 22.0375 23.6447 18.8825C23.6447 17.7352 23.3578 16.6835 22.8798 15.8231C23.7403 14.7715 25.0788 14.1023 26.5129 14.1023C29.1898 14.1023 31.2932 16.2056 31.2932 18.8826C31.2932 21.5596 29.1898 23.6629 26.5129 23.6629C25.9392 23.6629 25.4612 23.5673 24.8875 23.3761C24.4095 23.1849 23.8359 23.4717 23.6447 23.9498C23.4535 24.4278 23.7403 25.0014 24.2183 25.1926C24.792 25.3838 25.3656 25.4794 26.0348 25.5751C26.3217 26.1487 26.4173 26.8179 26.4173 27.4872C26.4173 30.1642 24.314 32.2676 21.637 32.2676C21.0633 32.2676 20.5853 32.1719 20.0116 31.9807C19.5336 31.7895 18.96 32.0764 18.7688 32.5544C18.5776 33.0324 18.8644 33.6061 19.3424 33.7973C20.1073 34.0841 20.7766 34.1797 21.5414 34.1797C25.2701 34.1797 28.2339 31.2159 28.2339 27.4872C28.2339 26.7224 28.1383 26.0531 27.8514 25.3839C31.0064 24.7144 33.2053 22.0375 33.2053 18.8825Z" fill="#E92D2C"/>
</svg>
