<svg width="39" height="34" viewBox="0 0 39 34" fill="none" xmlns="http://www.w3.org/2000/svg">
<path d="M38.625 5.26899L28.8749 0.718995C28.8652 0.714445 28.8541 0.713145 28.8444 0.709245C28.8171 0.698195 28.7892 0.689745 28.7612 0.682595C28.7378 0.676745 28.715 0.670895 28.6916 0.667645C28.6624 0.663095 28.6332 0.662445 28.6033 0.662445C28.5792 0.662445 28.5551 0.662445 28.5311 0.665045C28.5031 0.667645 28.4765 0.674145 28.4492 0.680645C28.4232 0.687145 28.3972 0.693645 28.3718 0.702745C28.3627 0.705995 28.353 0.706645 28.3439 0.710545L19.5 4.5007L10.6561 0.710545C10.6502 0.707945 10.6444 0.707945 10.6385 0.705345C10.6125 0.694945 10.5859 0.689095 10.5592 0.682595C10.5345 0.676095 10.5098 0.668945 10.4845 0.665045C10.4572 0.661795 10.4305 0.662445 10.4032 0.662445C10.3779 0.662445 10.3532 0.660495 10.3285 0.663745C10.3005 0.666995 10.2732 0.674795 10.2459 0.681295C10.2219 0.687145 10.1978 0.691695 10.1744 0.700145C10.1692 0.702095 10.1634 0.702095 10.1582 0.704695L0.4082 4.6047C0.16185 4.7035 0 4.94205 0 5.20789V33.1579C0 33.3737 0.10725 33.5752 0.28535 33.6961C0.39455 33.7695 0.52195 33.8079 0.65 33.8079C0.73125 33.8079 0.81315 33.7929 0.8918 33.7617L10.3922 29.9618L19.2445 33.7552C19.2536 33.7591 19.2634 33.7572 19.2725 33.7611C19.3466 33.789 19.4226 33.8079 19.5006 33.8079C19.5786 33.8079 19.6553 33.789 19.7288 33.7611C19.7379 33.7578 19.7477 33.7591 19.7568 33.7552L28.6091 29.9618L38.1095 33.7617C38.1875 33.7929 38.2694 33.8079 38.3513 33.8079C38.4793 33.8079 38.6067 33.7695 38.716 33.6961C38.8927 33.5752 39 33.3737 39 33.1579V5.85789C39 5.60504 38.8537 5.3756 38.625 5.26899ZM1.3 5.64794L9.75 2.26795V28.8178L1.3 32.1978V5.64794ZM11.05 2.29395L18.85 5.63689V32.1718L11.05 28.8289V2.29395ZM20.15 5.63625L27.95 2.2933V28.8289L20.15 32.1718V5.63625ZM37.7 32.1978L29.25 28.8178V2.3284L37.7 6.2713V32.1978Z" fill="#00AD73"/>
</svg>
