<svg width="42" height="42" viewBox="0 0 42 42" fill="none" xmlns="http://www.w3.org/2000/svg">
<g clip-path="url(#clip0)">
<path d="M21.0475 0.0227051C18.3414 0.0258083 16.1486 2.21866 16.1455 4.92468V28.4037C14.0643 30.1023 13.0293 32.7702 13.4203 35.428C14.0147 39.6405 17.9118 42.5733 22.124 41.9786C25.9305 41.4412 28.7581 38.1797 28.7502 34.3357C28.7573 32.0373 27.7284 29.8586 25.9491 28.4037V4.92468C25.9463 2.21866 23.7535 0.0258083 21.0475 0.0227051V0.0227051ZM27.3498 34.3357C27.3543 37.8161 24.5366 40.6417 21.0559 40.6462C17.5752 40.651 14.7496 37.833 14.7451 34.3523C14.7425 32.3657 15.6766 30.4942 17.266 29.3022C17.4423 29.1699 17.5462 28.9623 17.5462 28.742V26.6326H18.9466V25.2322H17.5462V23.1313H18.9466V21.7309H17.5462V19.63H18.9466V18.2296H17.5462V16.1287H18.9466V14.7283H17.5462V12.6275H18.9466V11.2271H17.5462V9.12617H18.9466V7.72577H17.5462V4.92468C17.5462 2.9908 19.1136 1.42339 21.0475 1.42339C22.981 1.42339 24.5487 2.9908 24.5487 4.92468V28.7434C24.5487 28.9637 24.6526 29.1713 24.8289 29.3034C26.4191 30.4865 27.3543 32.3536 27.3498 34.3357Z" fill="#E92D2C"/>
<path d="M21.7475 30.9043V6.32507H20.3471V30.9043C18.4525 31.2911 17.2301 33.1404 17.6169 35.035C18.0036 36.9297 19.8529 38.1521 21.7475 37.7653C23.6422 37.3785 24.8646 35.5293 24.4778 33.6346C24.1971 32.2593 23.1225 31.185 21.7475 30.9043ZM21.0473 36.4363C19.887 36.4363 18.9464 35.4957 18.9464 34.3357C18.9464 33.1753 19.887 32.2348 21.0473 32.2348C22.2077 32.2348 23.1482 33.1753 23.1482 34.3357C23.1482 35.4957 22.2077 36.4363 21.0473 36.4363Z" fill="#E92D2C"/>
</g>
<defs>
<clipPath id="clip0">
<rect width="42" height="42" fill="white" transform="translate(0 0.0227051)"/>
</clipPath>
</defs>
</svg>
